
<svg version="1.0" xmlns="http://www.w3.org/2000/svg"
 width="987.000000pt" height="1280.000000pt" viewBox="0 0 987.000000 1280.000000"
 preserveAspectRatio="xMidYMid meet">

<g transform="translate(0.000000,1280.000000) scale(0.100000,-0.100000)"
fill="#607d8b" stroke="none">
<path d="M6455 12790 c-103 -16 -217 -57 -307 -111 -285 -170 -826 -688 -1015
-973 -25 -37 -60 -103 -76 -145 -33 -82 -35 -118 -27 -361 3 -94 -1 -132 -18
-205 -52 -214 -116 -369 -181 -446 l-38 -44 -47 48 c-68 71 -131 97 -235 97
-100 0 -179 -19 -288 -70 -45 -21 -83 -36 -86 -34 -16 17 -185 47 -262 47
-145 0 -222 -41 -274 -144 -16 -33 -33 -84 -36 -114 l-7 -54 -182 -91 c-99
-50 -228 -119 -285 -154 l-105 -62 -24 45 c-48 91 -140 190 -311 335 -14 12
29 -40 94 -114 65 -74 142 -166 171 -205 l54 -70 -21 -17 c-29 -24 -32 -23
-53 17 -29 54 -119 133 -188 165 -59 27 -206 66 -215 56 -2 -2 13 -9 34 -16
53 -17 138 -65 203 -115 57 -44 160 -143 160 -154 -1 -3 -9 -16 -20 -29 l-19
-23 -42 46 c-73 80 -225 137 -354 134 l-40 -1 35 -10 c144 -42 272 -102 346
-161 40 -32 41 -34 28 -60 l-15 -27 -40 30 c-65 47 -143 71 -248 77 -70 5 -92
3 -87 -5 4 -7 15 -12 26 -12 23 0 198 -61 274 -96 56 -25 58 -27 52 -58 -4
-17 -9 -56 -13 -87 l-6 -57 -56 4 c-72 6 -858 54 -877 54 -11 0 -10 8 6 37 28
52 26 102 -6 149 -78 116 -163 159 -233 118 -26 -15 -29 -14 -79 16 -66 42
-123 39 -183 -10 -38 -30 -42 -31 -103 -25 -107 12 -156 -15 -156 -84 0 -27
-3 -30 -37 -33 -46 -4 -72 -37 -76 -95 -1 -30 -6 -43 -17 -43 -25 0 -260 38
-335 54 -272 58 -462 169 -498 292 l-14 48 -12 -91 c-37 -294 -51 -666 -26
-726 7 -16 12 -14 49 21 100 96 262 201 371 241 55 21 171 31 194 17 4 -3 11
-35 13 -71 7 -84 38 -134 102 -163 25 -12 55 -22 67 -22 24 0 38 19 -151 -210
-416 -504 -710 -988 -710 -1168 0 -35 27 -80 58 -96 54 -27 265 -87 347 -98
l84 -11 -6 -190 -6 -190 27 7 c76 19 266 36 400 36 224 0 398 -29 600 -99 85
-30 270 -118 318 -152 l28 -20 0 61 c0 122 40 262 106 366 27 43 47 59 123
102 60 33 91 46 91 37 0 -27 -188 -582 -252 -745 -74 -186 -139 -321 -232
-478 -111 -186 -543 -967 -678 -1224 -198 -376 -364 -756 -398 -911 -13 -55
-12 -60 15 -128 47 -115 73 -128 579 -299 363 -121 635 -226 911 -350 88 -39
180 -80 205 -91 l45 -20 0 -137 c0 -203 24 -264 169 -426 35 -39 71 -86 81
-105 16 -33 16 -36 0 -63 -10 -18 -15 -39 -11 -54 9 -34 152 -181 282 -290 62
-52 104 -95 104 -105 0 -36 51 -153 97 -223 60 -90 182 -212 301 -301 l92 -68
0 -51 c0 -99 -21 -372 -36 -476 -37 -256 -91 -388 -201 -490 -85 -80 -128 -99
-219 -100 -104 0 -150 -20 -250 -108 -48 -43 -114 -100 -148 -127 -33 -28 -62
-59 -64 -69 -5 -25 32 -61 84 -81 37 -14 43 -19 33 -31 -7 -8 -9 -18 -5 -22 7
-6 275 -13 534 -14 90 0 186 32 243 80 37 31 40 32 56 17 32 -33 164 -3 329
74 172 81 209 168 244 581 27 315 63 530 89 530 14 0 30 -81 61 -313 48 -355
61 -407 99 -407 27 0 43 -27 85 -143 45 -127 74 -174 142 -235 110 -98 219
-137 302 -109 27 10 44 11 48 5 4 -6 27 -19 51 -30 35 -15 62 -19 128 -17 65
2 88 0 102 -13 69 -61 183 -71 292 -26 64 27 64 27 139 12 78 -17 140 -12 148
11 15 37 -110 190 -203 248 -23 15 -109 56 -190 92 -178 79 -227 110 -293 182
-136 149 -224 470 -205 751 16 246 72 343 280 492 122 86 194 148 216 184 11
17 31 69 45 114 32 105 67 145 218 250 134 92 191 144 217 194 24 47 39 146
39 268 0 60 8 127 20 180 27 113 60 210 71 210 80 0 993 148 1004 163 1 1 -13
69 -32 152 -18 82 -31 155 -29 161 15 39 250 171 446 249 52 21 97 40 99 41 2
2 -17 54 -42 116 -62 154 -93 250 -108 333 l-12 69 34 29 c106 90 443 356 494
389 l60 39 7 -418 c3 -230 3 -421 0 -424 -4 -4 -32 -17 -62 -30 -272 -115
-431 -314 -447 -559 -10 -154 34 -274 143 -389 113 -120 267 -175 494 -176
121 0 140 2 182 23 26 13 62 40 81 61 80 89 169 281 203 438 16 77 16 86 1
149 -20 80 -43 121 -136 241 -76 99 -151 163 -248 212 l-63 31 0 469 c0 536
-13 474 110 539 148 79 321 130 625 182 321 55 496 100 745 190 63 23 125 44
138 47 28 7 28 11 -2 34 -49 39 -150 176 -187 254 -62 130 -64 122 36 189 266
181 394 416 341 626 -49 192 -266 480 -416 553 -58 28 -74 32 -155 31 -122 0
-237 -37 -374 -121 -170 -102 -500 -372 -717 -585 l-150 -147 -42 64 c-51 77
-116 135 -191 172 -49 25 -67 28 -152 28 l-96 0 -122 127 c-67 70 -138 137
-157 148 -19 12 -34 26 -34 31 0 4 42 66 93 136 51 71 135 189 187 263 52 74
120 170 152 213 71 96 74 121 21 177 -40 42 -345 226 -516 312 -56 27 -104 52
-107 55 -11 10 61 62 113 81 30 12 97 27 148 34 l94 14 -70 41 c-137 80 -263
118 -373 111 -34 -1 -62 -3 -62 -3 0 1 27 28 59 62 76 77 105 132 105 199 0
81 -31 115 -220 236 -110 70 -146 105 -242 238 -157 218 -186 225 -247 55 -15
-44 -57 -145 -92 -223 -35 -79 -72 -165 -83 -190 -41 -103 -52 -125 -58 -115
-20 30 -95 43 -145 24 l-25 -10 27 47 26 47 -1 260 c0 307 -10 395 -50 436
-15 16 -47 38 -69 49 -47 23 -176 50 -235 50 -38 0 -39 1 -49 48 -9 43 -8 50
16 86 78 120 278 283 483 394 41 22 161 76 265 120 359 152 474 213 655 349
278 208 506 439 659 665 141 208 301 643 381 1032 22 108 26 229 9 291 -16 58
-67 105 -115 105 -76 0 -143 -56 -384 -320 -274 -300 -324 -343 -560 -476 -58
-32 -170 -105 -250 -162 -413 -296 -500 -383 -807 -818 -131 -185 -211 -280
-308 -364 -76 -66 -184 -143 -255 -182 -46 -25 -172 -78 -186 -78 -5 0 23 33
62 73 165 169 381 421 526 612 229 304 307 448 473 870 74 188 155 355 237
490 105 172 200 320 238 371 22 29 42 63 46 77 5 23 1 28 -33 42 -46 20 -239
28 -328 15z m-5463 -3300 c51 0 49 3 62 -77 5 -29 1 -34 -40 -58 -46 -27 -58
-27 -121 2 -37 17 -67 61 -78 112 l-7 34 68 -6 c38 -4 90 -7 116 -7z m1028
-69 l45 -6 3 -51 c3 -46 0 -54 -24 -73 -17 -14 -41 -21 -68 -21 -72 0 -80 6
-105 78 -13 37 -26 73 -29 80 -5 14 42 12 178 -7z m751 -19 c4 -4 9 -35 12
-68 l6 -62 -70 -52 c-108 -80 -192 -204 -226 -333 -18 -67 -23 -271 -10 -387
l7 -65 -19 25 c-75 93 -286 482 -354 653 l-35 86 55 28 c75 37 98 70 98 136
l-1 52 266 -3 c146 -2 268 -7 271 -10z m3854 -3044 c22 -15 64 -34 93 -40 41
-10 63 -23 99 -60 43 -44 46 -49 35 -73 -42 -92 18 -214 191 -392 l60 -62
-168 -80 c-92 -45 -171 -81 -175 -81 -10 0 -73 173 -111 304 -37 131 -81 333
-103 476 -9 58 -19 114 -22 125 -3 11 9 -5 28 -35 18 -30 51 -67 73 -82z"/>
</g>
</svg>
